<svg xmlns="http://www.w3.org/2000/svg" width="512" height="82" viewBox="0 0 512 82">
  <defs>
    <linearGradient id="fromscratch-logo-gradient" x1="0%" y1="100%" x2="100%" y2="0%" gradientUnits="objectBoundingBox">
      <stop offset="0%" stop-color="#4080ff" />
      <stop offset="100%" stop-color="#00ddff" />
    </linearGradient>
  </defs>
  <path fill="#000" d="M112.40135,40.250759h21.144516l-1.373604,6.870232h-21.142651l-3.342428,16.73963h-8.119516l8.744434-43.722171h31.91724l-1.374157,6.807243h-23.797172l-2.656662,13.305066ZM155.344514,31.66214c-1.568926.675061-2.952269,1.725846-4.157488,3.136954l.847245-4.292859h-7.432714l-6.621039,33.354386h7.807886l3.310243-16.426894c.665806-3.498658,1.998523-6.048059,3.997598-7.651518,1.998523-1.603459,4.517534-2.404637,7.557587-2.404637.374619,0,.707799.009946.999538.030942.290634.020996.602817.072935.936548.155815l1.436594-7.432714c-3.414672,0-6.308303.510543-8.681998,1.530525ZM197.942827,36.970906c1.332164,2.185832,1.999075,4.778331,1.999075,7.776391,0,3.706411-.854221,7.038203-2.561004,9.994271-1.707889,2.957173-4.050089,5.288874-7.027152,6.995105-2.977616,1.708441-6.402234,2.561557-10.274406,2.561557-3.248359,0-6.090051-.61442-8.526183-1.84326-2.435579-1.227735-4.320279-2.935071-5.652443-5.122008-1.333269-2.185832-1.999075-4.75623-1.999075-7.713402,0-3.748404.853116-7.089036,2.561004-10.025213,1.707336-2.935071,4.049536-5.246882,7.027152-6.933221,2.976511-1.68634,6.380685-2.52951,10.21197-2.52951,3.289247,0,6.152488.593424,8.588619,1.780271,2.435579,1.186847,4.319174,2.873187,5.652443,5.059019ZM192.07158,45.121916c0-2.581448-.770788-4.621411-2.310705-6.120993-1.541023-1.498478-3.706964-2.248821-6.496165-2.248821-2.207381,0-4.174962.53154-5.902742,1.593514-1.728333,1.060869-3.091439,2.52951-4.090976,4.402607-.999538,1.874202-1.49903,4.040143-1.49903,6.496718,0,2.623441.770235,4.674454,2.311258,6.151935,1.539918,1.479691,3.705306,2.217879,6.495613,2.217879,2.248821,0,4.225795-.53154,5.933684-1.593514,1.707336-1.061974,3.060497-2.52951,4.060034-4.403712.999538-1.873097,1.49903-4.037933,1.49903-6.495613ZM259.028994,31.880944c-1.957635-1.165851-4.393766-1.749329-7.307841-1.749329-3.415225,0-6.464671.760289-9.150548,2.279763-1.482109.839095-2.809784,1.911429-3.993937,3.200219-.188967-.375172-.394234-.737221-.628026-1.076271-1.021086-1.477481-2.363749-2.581448-4.029092-3.310796-1.665896-.728242-3.581538-1.092916-5.746374-1.092916-2.748314,0-5.277824.552536-7.589082,1.655398-1.234642.589832-2.35111,1.374848-3.366049,2.326936l.711666-3.607715h-7.432714l-6.621039,33.354386h7.807886l3.497553-17.302111c.665806-3.288694,1.863151-5.715432,3.591484-7.276899,1.72778-1.561467,3.945107-2.341647,6.651981-2.341647,2.623441,0,4.434654.749239,5.434191,2.248821.999538,1.498478,1.227735,3.622426.687355,6.37074l-3.685415,18.301096h7.807333l3.498105-17.363995c.665253-3.247806,1.863151-5.653548,3.591484-7.215015,1.727227-1.561467,3.944554-2.341647,6.651981-2.341647,2.623441,0,4.434654.749239,5.434191,2.248821.998985,1.498478,1.227735,3.622426.686802,6.37074l-3.684862,18.301096h7.807333l3.685415-18.488959c.665253-3.288694.602817-6.06795-.18731-8.337768-.791784-2.269818-2.165941-3.9871-4.122471-5.15295ZM292.943651,19.512979c-3.790397,0-7.10948.583478-9.960566,1.749329-2.853296,1.165851-5.081121,2.801357-6.68458,4.903204-1.603459,2.102952-2.404637,4.590469-2.404637,7.463656,0,1.999075.406114,3.664419,1.218342,4.997135.811675,1.332717,1.863704,2.425633,3.154428,3.278748,1.290724.854221,2.727318,1.561467,4.309781,2.123948,1.582463.562482,3.153875,1.061974,4.715894,1.499583,1.560362.436503,2.996955.895108,4.309781,1.373604,1.310615.479601,2.362644,1.08297,3.153875,1.811213.789021.729347,1.186847,1.676394,1.186847,2.842245,0,1.290724-.428768,2.394691-1.281883,3.310796-.853116.916105-2.070905,1.623351-3.653368,2.122843-1.582463.500598-3.434564.750344-5.557959.750344-1.748224,0-3.487607-.187862-5.21594-.562482-1.728333-.374619-3.363839-.915-4.903204-1.624456-1.541023-.707246-2.91518-1.561467-4.122471-2.560452l-3.435116,6.37074c1.165298.959202,2.632834,1.822264,4.403712,2.592499,1.76922.77134,3.72575,1.384655,5.871247,1.842155,2.14384.458605,4.360614.687355,6.652533.687355,3.87162,0,7.25314-.583478,10.148428-1.748224,2.893078-1.165851,5.143005-2.811303,6.745359-4.935251,1.602354-2.123948,2.404637-4.621411,2.404637-7.494598,0-1.91509-.395616-3.508603-1.186847-4.778331s-1.852101-2.321756-3.184817-3.15498c-1.332717-.832119-2.780361-1.519474-4.340723-2.060959-1.562572-.54038-3.133984-1.031032-4.716447-1.467536-1.582463-.437608-3.019057-.906159-4.309228-1.405652-1.290724-.499493-2.331702-1.113913-3.122933-1.842155s-1.186847-1.696285-1.186847-2.905234c.041993-1.289619.479601-2.414582,1.312825-3.37268.831014-.956992,2.039963-1.706231,3.621873-2.248821,1.582463-.54038,3.454455-.811123,5.620396-.811123,2.207934,0,4.331882.291739,6.371845.874112,2.039963.583478,3.872172,1.415597,5.496628,2.498568l3.184817-6.433729c-1.832209-1.206739-4.018042-2.123948-6.557497-2.748314-2.541665-.624366-5.22699-.937101-8.058185-.937101ZM322.737496,38.345615c1.749329-1.061974,3.706411-1.593514,5.871247-1.593514,1.999075,0,3.695361.374619,5.091066,1.124963,1.394601.749239,2.467626,1.91509,3.216864,3.497553l6.683475-3.435669c-1.333822-2.581448-3.216864-4.528585-5.653548-5.840305-2.435579-1.31172-5.339708-1.967028-8.712387-1.967028-3.91527,0-7.37083.84317-10.36889,2.52951s-5.350758,3.99815-7.058094,6.933221c-1.707336,2.936176-2.560452,6.276809-2.560452,10.025213,0,2.957173.665253,5.52757,1.99797,7.713402,1.332717,2.186937,3.237861,3.894274,5.715432,5.122008,2.477571,1.22884,5.360704,1.84326,8.650503,1.84326,3.206919,0,6.162986-.656413,8.870412-1.968133,2.706321-1.31172,4.829164-3.132879,6.37074-5.464581l-5.746374-3.873277c-1.084076,1.582463-2.415687,2.748314-3.99815,3.497553-1.582463.750344-3.289799,1.124963-5.120903,1.124963-2.832299,0-5.019237-.749239-6.558602-2.248821-1.541575-1.499583-2.31181-3.539545-2.31181-6.120993,0-2.456575.500598-4.622516,1.499583-6.496718.998985-1.873097,2.373695-3.341738,4.121918-4.402607ZM362.587495,31.66214c-1.569064.674923-2.952062,1.725432-4.157004,3.136263l.847314-4.292168h-7.433819l-6.620486,33.354386h7.807333l3.310796-16.426894c.665253-3.498658,1.999075-6.048059,3.997045-7.651518,1.999075-1.603459,4.518639-2.404637,7.558692-2.404637.374619,0,.707246.009946.998985.030942.290634.020996.603369.072935.937101.155815l1.436594-7.432714c-3.414672,0-6.308856.510543-8.68255,1.530525ZM402.250737,30.506235h7.807333l-6.620486,33.354386h-7.433819l.674646-3.428348c-.528777.471037-1.08449.908576-1.673631,1.304399-2.54056,1.708441-5.600505,2.561557-9.182043,2.561557-2.707426,0-5.173947-.583478-7.400667-1.749329-2.22893-1.164746-3.99815-2.842245-5.309871-5.028077s-1.967028-4.819219-1.967028-7.901264c0-2.831194.468551-5.434744,1.404546-7.807333.937101-2.373695,2.258767-4.434654,3.967208-6.183983,1.706231-1.749329,3.694255-3.101937,5.964073-4.060034,2.269818-.956992,4.757335-1.436594,7.464761-1.436594,2.789202,0,5.193838.499493,7.21391,1.499583,1.75071.866238,3.111399,2.140179,4.126822,3.773544l.964244-4.898508ZM397.816083,51.617529c.998985-1.873097,1.498478-4.037933,1.498478-6.495613,0-2.581448-.77134-4.621411-2.310705-6.120993-1.541575-1.498478-3.706411-2.248821-6.496718-2.248821-2.206829,0-4.174962.53154-5.902189,1.593514-1.728333,1.060869-3.091991,2.52951-4.090976,4.402607-.998985,1.874202-1.499583,4.040143-1.499583,6.496718,0,2.581448.770235,4.621411,2.31181,6.120993,1.539365,1.499583,3.705306,2.248821,6.495613,2.248821,2.248821,0,4.225795-.53154,5.934236-1.593514,1.706231-1.061974,3.059944-2.52951,4.060034-4.403712ZM430.606883,23.13651h-7.808438l-1.526933,7.619471h-5.406288l-1.248731,6.245867h5.403318l-3.154497,15.740645c-.458605,2.373695-.343677,4.424708.343677,6.153041.68625,1.728333,1.811213,3.059944,3.37268,3.997045,1.561467.937101,3.424618,1.405652,5.589454,1.405652,1.374709,0,2.76931-.146975,4.184907-.437608,1.415597-.290634,2.706321-.812228,3.873277-1.561467l-1.374709-5.746374c-.624366.416612-1.321666.739293-2.091901.968043-.77134.229855-1.530525.343677-2.279763.343677-1.624456,0-2.728423-.478496-3.310796-1.436594-.583478-.958097-.749239-2.206829-.499493-3.748404l3.14911-15.677656h8.968004l1.249836-6.245867h-8.963238l1.530525-7.619471ZM452.842035,38.345615c1.749329-1.061974,3.706411-1.593514,5.871247-1.593514,1.999075,0,3.695361.374619,5.091066,1.124963,1.394601.749239,2.467626,1.91509,3.216864,3.497553l6.683475-3.435669c-1.333822-2.581448-3.216864-4.528585-5.653548-5.840305-2.435579-1.31172-5.339708-1.967028-8.712387-1.967028-3.91527,0-7.37083.84317-10.36889,2.52951s-5.350758,3.99815-7.058094,6.933221c-1.707336,2.936176-2.560452,6.276809-2.560452,10.025213,0,2.957173.665253,5.52757,1.99797,7.713402,1.332717,2.186937,3.237861,3.894274,5.715432,5.122008,2.477571,1.22884,5.360704,1.84326,8.650503,1.84326,3.206919,0,6.162986-.656413,8.870412-1.968133,2.706321-1.31172,4.829164-3.132879,6.37074-5.464581l-5.746374-3.873277c-1.084076,1.582463-2.415687,2.748314-3.99815,3.497553-1.582463.750344-3.289799,1.124963-5.120903,1.124963-2.832299,0-5.019237-.749239-6.558602-2.248821-1.541575-1.499583-2.31181-3.539545-2.31181-6.120993,0-2.456575.500598-4.622516,1.499583-6.496718.998985-1.873097,2.373695-3.341738,4.121918-4.402607ZM511.305866,37.033895c-.833224-2.269818-2.238876-3.9871-4.215849-5.15295-1.978079-1.165851-4.403712-1.749329-7.276899-1.749329s-5.506573.552536-7.901264,1.655398c-1.124065.51821-2.150332,1.188919-3.095306,1.986643l3.252227-16.258647h-7.808438l-9.243927,46.345612h7.807333l3.498658-17.302111c.665253-3.247806,1.936086-5.662389,3.809183-7.244852,1.874202-1.582463,4.247897-2.373695,7.121084-2.373695,2.748314,0,4.642407.760289,5.683385,2.279763,1.040978,1.520579,1.290724,3.633477.750344,6.339798l-3.623531,18.301096h7.808438l3.68431-18.488959c.666358-3.288694.583478-6.06795-.249746-8.337768Z" />
  <path fill="url(#fromscratch-logo-gradient)" d="M32.950299,80.93184L3.921285,64.222993c-1.234801-.711384-2.197048-1.662064-2.886743-2.852041-.689695-1.190702-1.034542-2.497795-1.034542-3.921287V24.55033c0-1.423489.344847-2.730585,1.034542-3.921284.689695-1.189977,1.651942-2.140664,2.886743-2.852041L32.950299,1.068158C34.184377.356053,35.491113.000007,36.8705,0c1.379387.000007,2.686127.356053,3.920205,1.068158l29.029014,16.708847c1.234806.71139,2.197049,1.662064,2.886743,2.852041.689694,1.190698,1.034541,2.497795,1.034541,3.921284v32.899336c0,1.423492-.344847,2.730585-1.034541,3.921287-.689694,1.189977-1.651937,2.140657-2.886743,2.852041l-29.029014,16.708847c-1.234078.712107-2.540814,1.068159-3.920201,1.06816-1.379391,0-2.68612-.356053-3.920205-1.06816Z" />
  <path fill="#fff" d="M17.322102,40.999997l7.006901,7.0069c.316993.340674.48141.745316.493249,1.213934.011839.468616-.152577.87326-.493249,1.213934-.341054.340674-.743599.51101-1.207632.51101s-.866577-.170336-1.207632-.51101l-7.984808-7.984808c-.414383-.414384-.621575-.897704-.621575-1.44996s.207192-1.035576.621575-1.44996l7.984808-7.984808c.341054-.340672.743599-.511008,1.207632-.511008s.866576.170336,1.207632.511008c.340674.340672.51101.745318.51101,1.213934s-.170336.873262-.51101,1.213934l-7.006901,7.0069ZM30.313311,57.928613c-.220367-.421639-.257032-.85722-.109994-1.30674l10.082695-32.288112c.146657-.449521.427178-.784462.841561-1.004831.414003-.220369.845761-.25703,1.295282-.109992.449521.146661.788095.427178,1.015716.841561.227624.414006.268111.845764.12145,1.295282l-10.105039,32.310456c-.146657.449521-.427179.784465-.841561,1.004833-.414001.220368-.845763.257032-1.295282.109993-.449519-.146657-.784464-.430806-1.004829-.852449ZM56.418897,40.999997l-7.0069-7.0069c-.340672-.340672-.511008-.745318-.511008-1.213934s.170336-.873262.511008-1.213934c.341053-.340672.743598-.511008,1.207633-.511008s.86658.170336,1.207633.511008l7.984808,7.984808c.414384.414384.621574.897704.621574,1.44996s-.20719,1.035576-.621574,1.44996l-7.984808,7.984808c-.341053.340674-.743598.51101-1.207633.51101s-.86658-.170336-1.207633-.51101c-.340672-.340674-.511008-.745318-.511008-1.213934s.170336-.87326.511008-1.213934l7.0069-7.0069Z" />
</svg>