<?xml version="1.0" encoding="UTF-8"?>
<svg id="Layer_1" xmlns="http://www.w3.org/2000/svg" width="74" height="82" xmlns:xlink="http://www.w3.org/1999/xlink" version="1.1" viewBox="0 0 74 82">
  <!-- Generator: Adobe Illustrator 30.3.0, SVG Export Plug-In . SVG Version: 2.1.3 Build 182)  -->
  <defs>
    <linearGradient id="linear-gradient" x1="-1.359432" y1="2.640552" x2="75.359438" y2="79.359423" gradientUnits="userSpaceOnUse">
      <stop offset="0" stop-color="#4080ff"/>
      <stop offset="1" stop-color="#0df"/>
    </linearGradient>
  </defs>
  <path d="M72.835938,20.629028c-.689636-1.189941-1.651917-2.140625-2.886719-2.852051L40.920227,1.068176c-1.23407-.712097-2.540833-1.068176-3.920227-1.068176s-2.686096.356079-3.920227,1.068176L4.050781,17.776978c-1.234802.711426-2.197021,1.662109-2.886719,2.852051-.689697,1.190735-1.034546,2.497803-1.034546,3.921326v32.899292c0,1.423523.344849,2.730591,1.034546,3.921326.689697,1.189941,1.651917,2.140625,2.886719,2.85199l29.028992,16.708862c1.234131.712097,2.540833,1.068176,3.920227,1.068176s2.686157-.356079,3.920227-1.068176l29.028992-16.708801c1.234802-.711426,2.197021-1.662109,2.886719-2.852051.689697-1.190735,1.034546-2.497803,1.034546-3.921326V24.550354c0-1.423523-.344849-2.730591-1.034546-3.921326ZM24.458496,48.006897c.317017.340698.481445.7453.493286,1.213928s-.152588.873291-.493286,1.213928c-.341064.340698-.743591.511047-1.207642.511047-.463989,0-.866577-.170349-1.207642-.511047l-7.984802-7.984802c-.414368-.414368-.621582-.897705-.621582-1.449951s.207214-1.035583.621582-1.449951l7.984802-7.984802c.341064-.340698.743652-.511047,1.207642-.511047.46405,0,.866577.170349,1.207642.511047.340698.340637.511047.7453.511047,1.213928s-.170349.87323-.511047,1.213928l-7.006897,7.006897,7.006897,7.006897ZM43.689514,25.355774l-10.105042,32.310486c-.146667.449524-.427185.784424-.841553,1.004822-.414001.220337-.845764.257019-1.295288.109985-.449524-.146667-.784485-.430786-1.004822-.852478-.220337-.421631-.257019-.857178-.109985-1.306702l10.082703-32.288147c.146667-.449524.427185-.784424.841553-1.004822.414001-.220337.845764-.257019,1.295288-.109985.449524.146667.788086.427185,1.015686.841553.227661.414001.268127.845764.12146,1.295288ZM59.941589,42.449951l-7.984802,7.984802c-.341064.340698-.743591.510986-1.207642.510986s-.866577-.170288-1.207642-.510986c-.340698-.340698-.510986-.7453-.510986-1.213928s.170288-.873291.510986-1.213928l7.006897-7.006897-7.006897-7.006897c-.340698-.340698-.510986-.7453-.510986-1.213928s.170288-.873291.510986-1.213928c.341064-.340698.743591-.511047,1.207642-.511047s.866577.170349,1.207642.511047l7.984802,7.984802c.414368.414368.621582.897705.621582,1.449951s-.207214,1.035583-.621582,1.449951Z" fill="url(#linear-gradient)"/>
</svg>