<svg xmlns="http://www.w3.org/2000/svg" width="74" height="82"  viewBox="0 0 74 82">
  <defs>
    <linearGradient id="fromscratch-logo-icon-gradient" x1="0%" y1="100%" x2="100%" y2="0%" gradientUnits="objectBoundingBox">
      <stop offset="0%" stop-color="#4080ff" />
      <stop offset="100%" stop-color="#00ddff" />
    </linearGradient>
  </defs>
  <path fill="url(#fromscratch-logo-icon-gradient)" d="M33.0798,80.931839l-29.029013-16.708847c-1.234801-.711384-2.197048-1.662064-2.886743-2.852039-.689695-1.190701-1.034542-2.497795-1.034542-3.921288V24.550329c0-1.423489.344847-2.730585,1.034542-3.921284.689695-1.189978,1.651942-2.140665,2.886743-2.852041L33.0798,1.068158C34.313877.356053,35.620613.000007,37,0c1.379387.000007,2.686127.356053,3.920204,1.068158l29.029015,16.708846c1.234802.71139,2.197052,1.662064,2.886742,2.852041.689697,1.190699,1.034538,2.497795,1.034538,3.921284v32.89934c0,1.423492-.344849,2.730583-1.034538,3.921288-.689697,1.189976-1.651939,2.140656-2.886742,2.852043l-29.029015,16.708847c-1.234077.712105-2.540813,1.068161-3.9202,1.068161s-2.686119-.356056-3.920204-1.068169Z" />
  <path fill="#fff" d="M17.451603,40.999996l7.006901,7.006901c.316994.340675.481409.745316.49325,1.213936.011839.468616-.152576.87326-.49325,1.213936-.341055.340675-.743599.511009-1.207632.511009s-.866577-.170338-1.207632-.511009l-7.984808-7.98481c-.414383-.414383-.621575-.897705-.621575-1.449959s.207192-1.035576.621575-1.449959l7.984808-7.984808c.341055-.340672.743599-.511007,1.207632-.511007s.866575.170336,1.207632.511007c.340673.340672.511009.745317.511009,1.213934s-.170336.87326-.511009,1.213936c0,0-7.006901,7.006901-7.006901,7.006893ZM30.442812,57.928612c-.220367-.421638-.257032-.85722-.109995-1.30674l10.082695-32.288113c.146656-.44952.427177-.784462.84156-1.004831.414001-.220369.84576-.25703,1.29528-.109991.44952.146662.788094.427177,1.015717.84156.227623.414005.268112.845764.121449,1.295282l-10.105038,32.310457c-.146656.44952-.427177.784466-.84156,1.004833-.414001.220367-.845762.25703-1.295282.109993-.449518-.146656-.784464-.430805-1.004826-.852451ZM56.548397,40.999996l-7.006901-7.006901c-.340672-.340672-.511009-.745319-.511009-1.213936s.170338-.873262.511009-1.213934c.341053-.340672.743599-.511007,1.207634-.511007s.866581.170336,1.207634.511007l7.98481,7.984808c.414383.414383.621574.897705.621574,1.449959s-.207191,1.035576-.621574,1.449959l-7.98481,7.98481c-.341053.340675-.743599.511009-1.207634.511009s-.866581-.170338-1.207634-.511009c-.340672-.340675-.511009-.745319-.511009-1.213936s.170338-.87326.511009-1.213936c0,0,7.006901-7.006901,7.006901-7.006893Z" />
</svg>