<svg xmlns="http://www.w3.org/2000/svg" width="512" height="82" viewBox="0 0 512 82">
  <defs>
    <linearGradient id="fromscratch-logo-gradient" x1="0%" y1="100%" x2="100%" y2="0%" gradientUnits="objectBoundingBox">
      <stop offset="0%" stop-color="#4080ff" />
      <stop offset="100%" stop-color="#00ddff" />
    </linearGradient>
  </defs>
  <path fill="url(#fromscratch-logo-gradient)" d="M32.950295,80.931831L3.921285,64.222986c-1.234801-.711384-2.197048-1.662063-2.886743-2.852039-.689695-1.1907-1.034542-2.497795-1.034542-3.921287V24.550327c0-1.423488.344847-2.730585,1.034542-3.921283.689695-1.189978,1.651942-2.140665,2.886743-2.852041L32.950295,1.068158C34.184373.356053,35.491109.000007,36.870495,0c1.379387.000007,2.686126.356053,3.920204,1.068158l29.029012,16.708845c1.234802.711389,2.197052,1.662063,2.886741,2.852041.689697,1.190699,1.034538,2.497795,1.034538,3.921283v32.899337c0,1.423492-.344849,2.730583-1.034538,3.921287-.689697,1.189976-1.651939,2.140655-2.886741,2.852043l-29.029012,16.708845c-1.234077.712105-2.540813,1.068161-3.9202,1.068161s-2.686119-.356056-3.920204-1.068169Z" />
  <path fill="#fff" d="M17.322098,40.999992l7.006901,7.006901c.316994.340675.481409.745316.49325,1.213936.011839.468616-.152576.87326-.49325,1.213936-.341055.340675-.743599.511009-1.207632.511009s-.866577-.170338-1.207632-.511009l-7.984808-7.98481c-.414383-.414383-.621575-.897705-.621575-1.449959s.207192-1.035576.621575-1.449959l7.984808-7.984808c.341055-.340672.743599-.511007,1.207632-.511007s.866575.170336,1.207632.511007c.340673.340672.511009.745317.511009,1.213934s-.170336.87326-.511009,1.213936c0,0-7.006901,7.006901-7.006901,7.006893ZM30.313307,57.928608c-.220367-.421638-.257032-.85722-.109995-1.30674l10.082695-32.288113c.146656-.44952.427177-.784462.84156-1.004831.414001-.220369.84576-.25703,1.29528-.109991.44952.146662.788094.427177,1.015717.84156.227623.414005.268112.845764.121449,1.295282l-10.105038,32.310457c-.146656.44952-.427177.784466-.84156,1.004833-.414001.220367-.845762.25703-1.295282.109993-.449518-.146656-.784464-.430805-1.004826-.852451ZM56.418892,40.999992l-7.006901-7.006901c-.340672-.340672-.511009-.745319-.511009-1.213936s.170338-.873262.511009-1.213934c.341053-.340672.743599-.511007,1.207634-.511007s.866581.170336,1.207634.511007l7.98481,7.984808c.414383.414383.621574.897705.621574,1.449959s-.207191,1.035576-.621574,1.449959l-7.98481,7.98481c-.341053.340675-.743599.511009-1.207634.511009s-.866581-.170338-1.207634-.511009c-.340672-.340675-.511009-.745319-.511009-1.213936s.170338-.87326.511009-1.213936c0,0,7.006901-7.006901,7.006901-7.006893Z" />
  <path fill="#000" d="M109.042245,40.872247h22.382505l-1.082432,5.475549h-22.389884l-3.586071,18.017635h-6.366366l8.91301-44.566016h31.451021l-1.081948,5.538453h-25.148042l-3.091791,15.534379ZM148.527919,35.641479l.977854-5.018709h-5.857328l-6.685241,33.742661h6.112331l3.374073-16.871814c.764041-3.903918,2.238414-6.769436,4.425053-8.594619,2.185187-1.824215,4.954898-2.737775,8.308164-2.737775h.827913c.254519,0,.509038.022258.764041.063872l1.14582-5.920716c-3.565204,0-6.557498.57291-8.976881,1.71873-1.677601.794526-3.146409,2.007423-4.415799,3.61837ZM195.886327,37.116396c1.29437,2.164865,1.941797,4.733282,1.941797,7.703318,0,3.819723-.849204,7.226215-2.546643,10.218509-1.697924,2.992294-4.021984,5.359419-6.971212,7.098472-2.95068,1.740989-6.356689,2.610999-10.218509,2.610999-3.226006,0-6.016523-.604846-8.372035-1.814538-2.355512-1.209692-4.191824-2.907132-5.507001-5.093287-1.316145-2.186155-1.973733-4.74296-1.973733-7.67235,0-3.819723.84872-7.226215,2.546643-10.218509,1.696956-2.992294,4.04279-5.347806,7.035084-7.066536s6.398302-2.578095,10.218509-2.578095c3.182941,0,5.962813.594201,8.3401,1.782602,2.376319,1.188401,4.212147,2.86455,5.507001,5.029415ZM191.652889,45.138104c0-2.970035-.870494-5.293612-2.610515-6.971696-1.740989-1.676149-4.22376-2.514224-7.448799-2.514224-2.50503,0-4.754089.604846-6.748629,1.814538-1.995508,1.209692-3.565204,2.886809-4.711508,5.029415-1.14582,2.143574-1.71873,4.616184-1.71873,7.416863,0,2.928422.869043,5.242321,2.610031,6.93976,1.740021,1.698407,4.222792,2.547127,7.448799,2.547127,2.546643,0,4.816993-.615491,6.812501-1.846474,1.99454-1.230982,3.554559-2.917777,4.679572-5.061351,1.124046-2.143574,1.687278-4.593926,1.687278-7.353959ZM258.184491,32.086981c-1.95341-1.188401-4.436666-1.782602-7.45025-1.782602-3.52359,0-6.653305.774203-9.390596,2.323576-1.644758.930797-3.106005,2.154582-4.390698,3.65962-.223007-.501357-.470691-.984508-.766461-1.431852-.997754-1.505824-2.345834-2.641967-4.04279-3.405525-1.697924-.764525-3.692463-1.14582-5.984588-1.14582-2.928422,0-5.592647.594201-7.990257,1.782602-1.38044.684081-2.619285,1.600906-3.725488,2.735053l.829002-4.199264h-5.857328l-6.685241,33.742661h6.112331l3.565204-17.826987c.720976-3.649398,2.100993-6.355237,4.138114-8.116549,2.037605-1.761311,4.605055-2.642935,7.703802-2.642935,3.055682,0,5.166836.849688,6.334914,2.547127,1.166627,1.698407,1.453082,4.074242.859365,7.130408l-3.820207,18.908936h6.111847l3.629076-18.017635c.72146-3.565204,2.100993-6.216848,4.138598-7.957837,2.037121-1.740021,4.604571-2.610999,7.704286-2.610999,3.05423,0,5.165868.849688,6.332979,2.547127,1.167111,1.698407,1.434211,4.074242.797429,7.130408l-3.756819,18.908936h6.112815l3.754884-18.908936c.679363-3.182941.627104-5.910071-.158712-8.181388-.785816-2.269382-2.154219-3.999725-4.10521-5.188126ZM292.880389,19.289409c-3.650366,0-6.865243.563233-9.644631,1.687762-2.780356,1.12453-4.956833,2.716484-6.52653,4.774896-1.570664,2.059379-2.355512,4.509731-2.355512,7.352991,0,2.038089.414198,3.724883,1.241628,5.061351.827429,1.337435,1.910345,2.430997,3.246813,3.278749,1.337435.849688,2.822937,1.560019,4.456505,2.132929,1.633568.57291,3.268104,1.082916,4.902639,1.528083,1.633568.446134,3.120037.933882,4.456505,1.464211,1.337435.531297,2.429061,1.221305,3.278749,2.069057.84872.849688,1.273564,1.932604,1.273564,3.247781,0,1.613245-.499361,2.981649-1.496147,4.106178-.997754,1.125497-2.409706,1.984862-4.233922,2.578095-1.825183.595168-3.926176.891301-6.302979.891301-1.867764,0-3.682302-.211938-5.443613-.636782-1.761311-.422908-3.417138-1.018077-4.965543-1.782602-1.550341-.763558-2.896486-1.654858-4.043274-2.673903l-2.800679,5.093287c1.05969,1.019044,2.471642,1.932604,4.233922,2.737775,1.760344.807106,3.71327,1.454534,5.856844,1.942281,2.142606.48678,4.339407.731622,6.589434.731622,3.734561,0,7.01331-.550652,9.836247-1.654858,2.821969-1.103239,5.029415-2.705839,6.621369-4.806832s2.387448-4.573603,2.387448-7.416863c0-1.951959-.413231-3.565204-1.241628-4.838767-.827429-1.273564-1.931636-2.323576-3.310685-3.151973-1.379049-.827429-2.875196-1.505824-4.488441-2.037121-1.613245-.530329-3.237135-1.039367-4.869736-1.528083-1.634536-.487748-3.130683-1.007431-4.488441-1.560019-1.359694-.550652-2.441642-1.251305-3.247781-2.100993-.806139-.847752-1.209692-1.950991-1.209692-3.310685.042581-1.569696.551619-2.9381,1.528083-4.106178.976463-1.167111,2.355512-2.069057,4.139082-2.705839,1.782602-.636782,3.883595-.955173,6.302979-.955173,2.249059,0,4.412956.298068,6.493626.891301,2.078735.595168,3.947467,1.486469,5.602325,2.673903l2.547127-5.220062c-1.782602-1.230982-3.927144-2.164865-6.430722-2.801646-2.504546-.636782-5.135868-.955173-7.894933-.955173ZM322.103641,37.466722c1.99454-1.209692,4.265857-1.814538,6.812017-1.814538,2.164865,0,4.021016.392908,5.571357,1.177756,1.548406.785816,2.747452,2.005185,3.59714,3.661011l5.156191-2.865518c-1.316145-2.460997-3.141328-4.296826-5.474582-5.506517-2.335189-1.209692-5.136836-1.814538-8.403971-1.814538-3.820691,0-7.237828.859365-10.250445,2.578095-3.014552,1.71873-5.370064,4.074242-7.067504,7.066536-1.69744,2.992294-2.546159,6.398786-2.546159,10.218509,0,2.92939.657105,5.486195,1.973249,7.67235,1.315177,2.186155,3.172296,3.883595,5.571357,5.093287,2.397125,1.209692,5.230708,1.814538,8.498811,1.814538,3.056166,0,5.899425-.615491,8.531715-1.846474,2.631322-1.230982,4.711024-2.928422,6.239107-5.093287l-4.456505-3.182941c-1.188401,1.570664-2.664225,2.759065-4.424569,3.565204-1.762279.806139-3.639721,1.209692-5.634261,1.209692-3.22649,0-5.720391-.84872-7.480735-2.547127-1.762279-1.69744-2.642935-4.011338-2.642935-6.93976,0-2.800679.57291-5.273289,1.719698-7.416863,1.14582-2.142606,2.715516-3.819723,4.711024-5.029415ZM357.4786,35.640632l.977733-5.017862h-5.857812l-6.684273,33.742661h6.111363l3.374556-16.871814c.764525-3.903918,2.238414-6.769436,4.424569-8.594619,2.186155-1.824215,4.954898-2.737775,8.309132-2.737775h.827429c.254519,0,.509038.022258.763558.063872l1.14582-5.920716c-3.565204,0-6.557498.57291-8.976881,1.71873-1.677298.794405-3.145985,2.007-4.415194,3.617523ZM403.59526,30.62277h6.111363l-6.684273,33.742661h-5.857812l.841946-4.119666c-.70277.672105-1.456046,1.28687-2.274221,1.828026-2.696161,1.782602-5.911038,2.673903-9.645599,2.673903-2.844228,0-5.390387-.583555-7.639446-1.750666-2.250027-1.167111-4.021984-2.833582-5.316838-4.998447-1.294854-2.164865-1.941314-4.774896-1.941314-7.831061,0-2.885841.477102-5.538453,1.432275-7.957837s2.29164-4.520377,4.011338-6.302979c1.71873-1.782602,3.745206-3.161651,6.079427-4.138114s4.860058-1.464211,7.576542-1.464211c2.928422,0,5.411678.509038,7.448799,1.528083,2.038089,1.018077,3.607785,2.514224,4.711992,4.488441.010161.018145.016633.039315.026674.057521l1.119146-5.755653ZM398.915204,52.492063c1.12453-2.143574,1.687762-4.593926,1.687762-7.353959,0-2.970035-.870978-5.293612-2.610999-6.971696-1.740021-1.676149-4.223276-2.514224-7.448799-2.514224-2.504546,0-4.753605.604846-6.748145,1.814538-1.995508,1.209692-3.565204,2.886809-4.711024,5.029415-1.146788,2.143574-1.719698,4.616184-1.719698,7.416863,0,2.928422.87001,5.242321,2.610999,6.93976,1.739053,1.698407,4.222309,2.547127,7.448799,2.547127,2.546159,0,4.816509-.615491,6.812017-1.846474,1.99454-1.230982,3.554559-2.917777,4.679088-5.061351ZM429.825251,23.236875h-6.111363l-1.48036,7.385895h-5.777791l-.955173,5.029415h5.724927l-3.623934,18.080539c-.424844,2.250995-.329036,4.201986.286455,5.857812.614523,1.654858,1.654858,2.928422,3.120037,3.819723,1.464211.891301,3.214877,1.337435,5.251998,1.337435,1.315177,0,2.663258-.149034,4.043274-.446134,1.378081-.296133,2.641967-.84872,3.787787-1.654858l-1.273564-4.64812c-.679363.510006-1.44292.902914-2.29164,1.177756-.849688.276777-1.698407.414198-2.547127.414198-1.825183,0-3.066811-.540974-3.723915-1.62389-.65904-1.081948-.839042-2.535514-.540974-4.360697l3.612926-17.953763h9.692717l1.019044-5.029415h-9.699612l1.486288-7.385895ZM452.426166,37.466722c1.99454-1.209692,4.265857-1.814538,6.812017-1.814538,2.164865,0,4.021016.392908,5.571357,1.177756,1.548406.785816,2.747452,2.005185,3.59714,3.661011l5.156191-2.865518c-1.316145-2.460997-3.141328-4.296826-5.474582-5.506517-2.335189-1.209692-5.136836-1.814538-8.403971-1.814538-3.820691,0-7.237828.859365-10.250445,2.578095-3.014552,1.71873-5.370064,4.074242-7.067504,7.066536-1.69744,2.992294-2.546159,6.398786-2.546159,10.218509,0,2.92939.657105,5.486195,1.973249,7.67235,1.315177,2.186155,3.172296,3.883595,5.571357,5.093287,2.397125,1.209692,5.230708,1.814538,8.498811,1.814538,3.056166,0,5.899425-.615491,8.531715-1.846474,2.631322-1.230982,4.711024-2.928422,6.239107-5.093287l-4.456505-3.182941c-1.188401,1.570664-2.664225,2.759065-4.424569,3.565204-1.762279.806139-3.639721,1.209692-5.634261,1.209692-3.22649,0-5.720391-.84872-7.480735-2.547127-1.762279-1.69744-2.642935-4.011338-2.642935-6.93976,0-2.800679.57291-5.273289,1.719698-7.416863,1.14582-2.142606,2.715516-3.819723,4.711024-5.029415ZM511.349773,37.275107c-.785816-2.269382-2.17551-3.999725-4.17005-5.188126-1.995508-1.188401-4.478763-1.782602-7.448799-1.782602-3.056166,0-5.825876.594201-8.308164,1.782602-1.3231.633213-2.51882,1.465421-3.594962,2.484163l3.499155-17.445632h-6.112331l-9.422048,47.239919h6.111363l3.565204-17.826987c.721944-3.649398,2.164865-6.355237,4.329729-8.116549,2.164865-1.761311,4.880381-2.642935,8.149452-2.642935,3.182941,0,5.389419.849688,6.621369,2.547127,1.230015,1.698407,1.528083,4.074242.891301,7.130408l-3.756819,18.908936h6.112331l3.755851-18.908936c.636782-3.182941.562265-5.910071-.222583-8.181388Z" />
</svg>